REM DIRINDEX 1\6,1\2\7,1\2\8,1\2\9,1\3\10,1\3\11,1\4\12,1\4\13,1\4\14,1\5\15,1\5\16,1\5\17
REM DIRNAME folder01,folder02,folder03,folder04,folder05,folder06,folder07,folder08,folder09,folder10,folder11,folder12,folder13,folder14,folder15,folder16,folder17
TITLE ""
FILE "P2Q_t2_0391-0408.mp3" MP3
  TRACK 01 AUDIO
    TITLE "7:cjc040_5002"
    INDEX 01 00:00:00
  TRACK 02 AUDIO
    TITLE "0:"
    INDEX 01 00:00:74
  TRACK 03 AUDIO
    TITLE "8:cjc040_5003"
    INDEX 01 00:01:58
  TRACK 04 AUDIO
    TITLE "0:"
    INDEX 01 00:03:27
  TRACK 05 AUDIO
    TITLE "9:cjc040_5004"
    INDEX 01 00:04:05
  TRACK 06 AUDIO
    TITLE "0:"
    INDEX 01 00:05:16
  TRACK 07 AUDIO
    TITLE "7:cjc040_5005"
    INDEX 01 00:06:69
  TRACK 08 AUDIO
    TITLE "0:"
    INDEX 01 00:07:70
  TRACK 09 AUDIO
    TITLE "8:cjc040_5006"
    INDEX 01 00:08:50
  TRACK 10 AUDIO
    TITLE "0:"
    INDEX 01 00:10:12
  TRACK 11 AUDIO
    TITLE "9:cjc040_5007"
    INDEX 01 00:10:63
  TRACK 12 AUDIO
    TITLE "0:"
    INDEX 01 00:11:64
  TRACK 13 AUDIO
    TITLE "7:cjc040_5008"
    INDEX 01 00:13:47
  TRACK 14 AUDIO
    TITLE "0:"
    INDEX 01 00:14:47
  TRACK 15 AUDIO
    TITLE "8:cjc040_5009"
    INDEX 01 00:15:32
  TRACK 16 AUDIO
    TITLE "0:"
    INDEX 01 00:17:49
  TRACK 17 AUDIO
    TITLE "9:cjc040_5010"
    INDEX 01 00:18:27
  TRACK 18 AUDIO
    TITLE "0:"
    INDEX 01 00:19:28
  TRACK 19 AUDIO
    TITLE "7:cjc040_5011"
    INDEX 01 00:21:13
  TRACK 20 AUDIO
    TITLE "0:"
    INDEX 01 00:22:30
  TRACK 21 AUDIO
    TITLE "8:cjc040_5012"
    INDEX 01 00:23:04
  TRACK 22 AUDIO
    TITLE "0:"
    INDEX 01 00:24:27
  TRACK 23 AUDIO
    TITLE "9:cjc040_5013"
    INDEX 01 00:25:03
  TRACK 24 AUDIO
    TITLE "0:"
    INDEX 01 00:26:20
  TRACK 25 AUDIO
    TITLE "7:cjc040_5014"
    INDEX 01 00:27:65
  TRACK 26 AUDIO
    TITLE "0:"
    INDEX 01 00:29:17
  TRACK 27 AUDIO
    TITLE "8:cjc040_5015"
    INDEX 01 00:29:72
  TRACK 28 AUDIO
    TITLE "0:"
    INDEX 01 00:33:44
  TRACK 29 AUDIO
    TITLE "9:cjc040_5016"
    INDEX 01 00:34:16
  TRACK 30 AUDIO
    TITLE "0:"
    INDEX 01 00:35:51
  TRACK 31 AUDIO
    TITLE "7:cjc040_5017"
    INDEX 01 00:37:36
  TRACK 32 AUDIO
    TITLE "0:"
    INDEX 01 00:38:31
  TRACK 33 AUDIO
    TITLE "8:cjc040_5018"
    INDEX 01 00:39:02
  TRACK 34 AUDIO
    TITLE "0:"
    INDEX 01 00:42:02
  TRACK 35 AUDIO
    TITLE "9:cjc040_5019"
    INDEX 01 00:42:55
  TRACK 36 AUDIO
    TITLE "0:"
    INDEX 01 00:43:52
  TRACK 37 AUDIO
    TITLE "7:cjc040_5020"
    INDEX 01 00:45:35
  TRACK 38 AUDIO
    TITLE "0:"
    INDEX 01 00:46:54
  TRACK 39 AUDIO
    TITLE "8:cjc040_5021"
    INDEX 01 00:47:32
  TRACK 40 AUDIO
    TITLE "0:"
    INDEX 01 00:48:71
  TRACK 41 AUDIO
    TITLE "9:cjc040_5022"
    INDEX 01 00:49:49
  TRACK 42 AUDIO
    TITLE "0:"
    INDEX 01 00:50:66
  TRACK 43 AUDIO
    TITLE "7:cjc040_5023"
    INDEX 01 00:52:53
  TRACK 44 AUDIO
    TITLE "0:"
    INDEX 01 00:53:58
  TRACK 45 AUDIO
    TITLE "8:cjc040_5024"
    INDEX 01 00:54:36
  TRACK 46 AUDIO
    TITLE "0:"
    INDEX 01 00:56:02
  TRACK 47 AUDIO
    TITLE "9:cjc040_5025"
    INDEX 01 00:56:59
  TRACK 48 AUDIO
    TITLE "0:"
    INDEX 01 00:57:64
  TRACK 49 AUDIO
    TITLE "7:cjc040_5026"
    INDEX 01 00:59:41
  TRACK 50 AUDIO
    TITLE "0:"
    INDEX 01 01:00:35
  TRACK 51 AUDIO
    TITLE "8:cjc040_5027"
    INDEX 01 01:01:15
  TRACK 52 AUDIO
    TITLE "0:"
    INDEX 01 01:02:28
  TRACK 53 AUDIO
    TITLE "9:cjc040_5028"
    INDEX 01 01:03:02
  TRACK 54 AUDIO
    TITLE "0:"
    INDEX 01 01:04:01
  TRACK 55 AUDIO
    TITLE "7:cjc040_5029"
    INDEX 01 01:05:62
  TRACK 56 AUDIO
    TITLE "0:"
    INDEX 01 01:07:27
  TRACK 57 AUDIO
    TITLE "8:cjc040_5030"
    INDEX 01 01:08:03
  TRACK 58 AUDIO
    TITLE "0:"
    INDEX 01 01:13:26
  TRACK 59 AUDIO
    TITLE "9:cjc040_5031"
    INDEX 01 01:14:06
  TRACK 60 AUDIO
    TITLE "0:"
    INDEX 01 01:15:46
  TRACK 61 AUDIO
    TITLE "7:cjc040_5032"
    INDEX 01 01:17:32
  TRACK 62 AUDIO
    TITLE "0:"
    INDEX 01 01:18:41
  TRACK 63 AUDIO
    TITLE "8:cjc040_5033"
    INDEX 01 01:19:21
  TRACK 64 AUDIO
    TITLE "0:"
    INDEX 01 01:21:43
  TRACK 65 AUDIO
    TITLE "9:cjc040_5034"
    INDEX 01 01:22:23
  TRACK 66 AUDIO
    TITLE "0:"
    INDEX 01 01:23:36
  TRACK 67 AUDIO
    TITLE "7:cjc040_5035"
    INDEX 01 01:25:23
  TRACK 68 AUDIO
    TITLE "0:"
    INDEX 01 01:26:46
  TRACK 69 AUDIO
    TITLE "8:cjc040_5036"
    INDEX 01 01:27:26
  TRACK 70 AUDIO
    TITLE "0:"
    INDEX 01 01:28:59
  TRACK 71 AUDIO
    TITLE "9:cjc040_5037"
    INDEX 01 01:29:35
  TRACK 72 AUDIO
    TITLE "0:"
    INDEX 01 01:30:60
  TRACK 73 AUDIO
    TITLE "7:cjc040_5038"
    INDEX 01 01:32:37
  TRACK 74 AUDIO
    TITLE "0:"
    INDEX 01 01:33:42
  TRACK 75 AUDIO
    TITLE "8:cjc040_5039"
    INDEX 01 01:34:28
  TRACK 76 AUDIO
    TITLE "0:"
    INDEX 01 01:35:51
  TRACK 77 AUDIO
    TITLE "9:cjc040_5040"
    INDEX 01 01:36:31
  TRACK 78 AUDIO
    TITLE "0:"
    INDEX 01 01:37:38
  TRACK 79 AUDIO
    TITLE "7:cjc040_5041"
    INDEX 01 01:39:21
  TRACK 80 AUDIO
    TITLE "0:"
    INDEX 01 01:40:19
  TRACK 81 AUDIO
    TITLE "8:cjc040_5042"
    INDEX 01 01:40:74
  TRACK 82 AUDIO
    TITLE "0:"
    INDEX 01 01:44:07
  TRACK 83 AUDIO
    TITLE "9:cjc040_5043"
    INDEX 01 01:44:66
  TRACK 84 AUDIO
    TITLE "0:"
    INDEX 01 01:45:65
  TRACK 85 AUDIO
    TITLE "7:cjc040_5044"
    INDEX 01 01:47:54
  TRACK 86 AUDIO
    TITLE "0:"
    INDEX 01 01:48:69
  TRACK 87 AUDIO
    TITLE "8:cjc040_5045"
    INDEX 01 01:49:49
  TRACK 88 AUDIO
    TITLE "0:"
    INDEX 01 01:52:51
  TRACK 89 AUDIO
    TITLE "9:cjc040_5046"
    INDEX 01 01:53:37
  TRACK 90 AUDIO
    TITLE "0:"
    INDEX 01 01:54:52
  TRACK 91 AUDIO
    TITLE "7:cjc040_5047"
    INDEX 01 01:56:32
  TRACK 92 AUDIO
    TITLE "0:"
    INDEX 01 01:57:57
  TRACK 93 AUDIO
    TITLE "8:cjc040_5048"
    INDEX 01 01:58:40
  TRACK 94 AUDIO
    TITLE "0:"
    INDEX 01 02:01:13
  TRACK 95 AUDIO
    TITLE "9:cjc040_5049"
    INDEX 01 02:01:66
  TRACK 96 AUDIO
    TITLE "0:"
    INDEX 01 02:03:14
  TRACK 97 AUDIO
    TITLE "7:cjc040_5050"
    INDEX 01 02:05:01
  TRACK 98 AUDIO
    TITLE "0:"
    INDEX 01 02:06:12
  TRACK 99 AUDIO
    TITLE "8:cjc040_5051"
    INDEX 01 02:06:67
  TRACK 100 AUDIO
    TITLE "0:"
    INDEX 01 02:10:71
  TRACK 101 AUDIO
    TITLE "9:cjc040_5052"
    INDEX 01 02:11:51
  TRACK 102 AUDIO
    TITLE "0:"
    INDEX 01 02:12:62
  TRACK 103 AUDIO
    TITLE "7:cjc040_5053"
    INDEX 01 02:14:57
  TRACK 104 AUDIO
    TITLE "0:"
    INDEX 01 02:16:11
  TRACK 105 AUDIO
    TITLE "8:cjc040_5054"
    INDEX 01 02:16:72
  TRACK 106 AUDIO
    TITLE "0:"
    INDEX 01 02:20:58
  TRACK 107 AUDIO
    TITLE "9:cjc040_5055"
    INDEX 01 02:21:37
  TRACK 108 AUDIO
    TITLE "0:"
    INDEX 01 02:22:72
